<?xml version="1.0" encoding="UTF-8" standalone="no"?>
<svg
   xmlns:dc="http://purl.org/dc/elements/1.1/"
   xmlns:cc="http://creativecommons.org/ns#"
   xmlns:rdf="http://www.w3.org/1999/02/22-rdf-syntax-ns#"
   xmlns:svg="http://www.w3.org/2000/svg"
   xmlns="http://www.w3.org/2000/svg"
   xmlns:sodipodi="http://sodipodi.sourceforge.net/DTD/sodipodi-0.dtd"
   xmlns:inkscape="http://www.inkscape.org/namespaces/inkscape"
   version="1.1"
   id="svg110"
   width="502"
   height="366.07492"
   viewBox="0 0 502 366.07493"
   sodipodi:docname="logo-notext.svg"
   inkscape:version="1.0.1 (c497b03c, 2020-09-10)">
  <metadata
     id="metadata116">
    <rdf:RDF>
      <cc:Work
         rdf:about="">
        <dc:format>image/svg+xml</dc:format>
        <dc:type
           rdf:resource="http://purl.org/dc/dcmitype/StillImage" />
        <dc:title></dc:title>
      </cc:Work>
    </rdf:RDF>
  </metadata>
  <defs
     id="defs114" />
  <sodipodi:namedview
     pagecolor="#ffffff"
     bordercolor="#666666"
     borderopacity="1"
     objecttolerance="10"
     gridtolerance="10"
     guidetolerance="10"
     inkscape:pageopacity="0"
     inkscape:pageshadow="2"
     inkscape:window-width="2560"
     inkscape:window-height="1395"
     id="namedview112"
     showgrid="false"
     inkscape:snap-global="false"
     showguides="true"
     inkscape:guide-bbox="true"
     fit-margin-top="0"
     fit-margin-left="0"
     fit-margin-right="0"
     fit-margin-bottom="0"
     inkscape:zoom="1.4182101"
     inkscape:cx="119.2593"
     inkscape:cy="253.71963"
     inkscape:window-x="0"
     inkscape:window-y="23"
     inkscape:window-maximized="0"
     inkscape:current-layer="g118"
     inkscape:document-rotation="0">
    <sodipodi:guide
       position="249.20525,708.09675"
       orientation="1,0"
       id="guide999" />
    <sodipodi:guide
       position="-177.92801,184.81912"
       orientation="0,-1"
       id="guide1001" />
  </sodipodi:namedview>
  <g
     inkscape:groupmode="layer"
     id="layer1"
     inkscape:label="bg"
     transform="translate(-67.078384)">
    <path
       style="fill:#ffffff;stroke:#ffffff;stroke-width:1.21792"
       d="M 248.35668,10.486808 C 185.8985,11.165965 124.88702,48.369304 97.690863,104.93542 c -22.572827,46.38059 -23.653087,103.25449 0.03452,149.46359 2.545127,7.4071 8.823727,13.60166 10.194137,21.26228 -3.17813,18.64977 -12.694715,35.69592 -16.680097,54.08097 -0.795696,9.65583 10.938127,13.1566 18.285767,9.2963 15.68956,-4.20795 30.11235,-12.57558 45.99567,-15.87345 11.70043,2.40413 21.37974,10.71266 32.89085,14.0892 23.87485,8.99437 50.24488,16.04327 75.73705,10.83248 10.35397,-2.0815 9.21237,-17.85474 -0.82898,-19.63596 -36.11707,-13.20888 -66.05902,-41.37181 -84.11838,-75.02378 -14.52576,-27.40876 -19.12861,-59.53036 -15.95909,-89.88853 5.96828,-60.0209 49.89426,-115.471423 108.28347,-132.287528 9.8699,-3.189535 8.20671,-18.539365 -2.10045,-19.5082 -7.00899,-0.615955 -14.02119,-1.382369 -21.06865,-1.255984 z"
       id="path83" />
    <path
       style="fill:#ffffff;stroke:#ffffff;stroke-width:1.21792"
       d="m 316.07993,25.151854 c -58.98028,-0.716212 -114.91892,37.55772 -139.18469,90.729296 -15.38343,32.69612 -17.88959,71.09324 -8.40835,105.82609 14.93593,57.5401 65.08604,104.23613 123.98904,113.64702 23.73391,4.02023 48.58068,2.39612 71.67395,-4.37493 54.68915,-15.8764 97.98939,-64.12189 108.03846,-120.1511 C 482.53225,158.12597 463.83745,100.50755 423.34292,64.924698 395.13133,37.494837 355.09779,23.982289 316.07993,25.151854 Z m 5.26896,35.255582 c 34.65085,0.548351 68.59987,16.755977 90.49507,43.689394 29.30281,33.59563 35.07438,84.33278 17.76222,124.88134 -18.83256,44.14673 -66.07297,74.91651 -114.34454,71.79569 -52.96628,0.55453 -101.48469,-40.94842 -113.3645,-91.44662 -3.7897,-16.31789 -2.39634,-33.17242 -1.49148,-49.45677 5.86773,-34.3089 28.03916,-65.557018 57.99413,-83.125721 19.02983,-10.935578 40.97597,-16.803425 62.9491,-16.337313 z"
       id="path85" />
    <path
       style="fill:#ffffff;stroke:#ffffff;stroke-width:1.21792"
       d="m 378.17504,11.259904 c -8.34861,-1.6071201 -17.90256,5.19835 -14.46523,14.322506 6.10298,9.082922 18.61966,9.818465 27.15115,15.269251 55.58561,27.9335 90.18712,91.507319 84.68381,153.327639 -1.91959,36.85433 -19.31665,72.45796 -45.60839,98.21871 -15.13354,16.70707 -35.64203,26.50784 -55.31282,36.66879 -9.46261,4.30288 -6.04529,19.78403 4.4126,19.70089 33.03715,1.71099 65.82963,-7.69899 94.55116,-23.70989 6.68202,-5.54285 14.08167,0.77773 20.94233,2.54132 13.48587,4.4207 26.41851,11.7538 40.56734,13.53751 9.48355,-1.06402 11.11331,-12.0389 7.42501,-19.2093 -4.32423,-15.98775 -12.82756,-30.98838 -14.85387,-47.48871 5.907,-14.51168 15.90534,-27.38591 19.59989,-42.93606 C 568.65321,168.37548 545.87599,94.408348 495.93549,51.249214 466.21716,26.190507 428.01068,10.372437 388.79286,11.355767 c -3.53854,-0.08523 -7.07825,-0.132614 -10.61782,-0.09586 z"
       id="path87" />
  </g>
  <g
     inkscape:groupmode="layer"
     inkscape:label="Image"
     id="g118"
     transform="translate(-110.46886,-29.537235)"
     style="display:inline">
    <circle
       style="opacity:1;fill:#e5b80e;fill-opacity:1;stroke:none"
       id="path130"
       cx="362.5116"
       cy="210.41437"
       r="130" />
    <path
       style="opacity:1;fill:#050504;stroke:none"
       d="m 110.46886,395.61216 c 20.727,-5.723 40.812,-14.707 61,-22.089 8,-2.926 18.018,-8.885 26.63,-8.963 4.433,-0.04 8.569,2.833 12.375,4.776 6.84,3.494 13.765,6.686 20.995,9.297 21.55,7.783 45.055,11.862 67.99999,10.869 13.16,-0.57 26.233,-2.578 39,-5.783 7.698,-1.932 15.953,-6.061 24,-5.642 10.025,0.522 20.121,5.723 30,7.682 19.883,3.943 39.891,4.756 60,2.236 16.122,-2.021 32.044,-6.368 47,-12.687 7.653,-3.234 17.501,-10.941 26,-10.392 8.953,0.577 18.674,6.011 27,9.133 19.657,7.372 39.608,16.526 60,21.563 -5.97,-20.595 -13.991,-40.748 -21.035,-61 -2.834,-8.148 -8.489,-18.239 -8.266,-27 0.169,-6.631 5.292,-13.218 8.126,-19 5.174,-10.559 9.429,-21.611 12.376,-33 12.431,-48.04 4.791,-99.892 -21.563,-142 -35.177,-56.206794 -98.123,-86.759294 -163.638,-83.889494 -12.092,0.5296 -24.337,2.6403 -36,5.826 -6.718,1.835 -13.973,5.6903 -21,5.7641 -6.96,0.0731 -14.35,-3.8418 -21,-5.6764 -11.921,-3.2887 -24.624,-5.5346 -37,-5.9506 -67.98899,-2.2851 -132.38499,30.1226 -166.82699,89.926394 -23.724,41.195 -29.734,91.2 -17.506,137 2.956,11.072 6.992,21.742 12.09,32 2.755,5.542 7.902,12.146 8.307,18.456 0.532,8.295 -5.406,18.802 -8.099,26.544 -7.067,20.318 -16.495,40.942 -20.965,62 M 312.46885,50.612166 v 1 c -17.66199,4.7953 -34.36099,13.7937 -48.99999,24.6941 -69.398,51.673894 -88.66,150.019894 -42.214,223.305894 9.98,15.747 22.642,29.843 37.214,41.463 14.195,11.319 30.468,21.404 47.99999,26.537 v 1 c -24.20899,4.103 -51.56899,-1.943 -73.99999,-11.058 -6.199,-2.519 -12.18,-5.368 -18,-8.672 -4.021,-2.283 -8.296,-5.47 -13,-6.051 -6.215,-0.768 -13.306,3.144 -19,5.237 -13.308,4.891 -26.465,10.304 -40,14.544 4.467,-13.4 9.446,-26.627 13.993,-40 1.864,-5.485 5.412,-12.095 4.99,-18 -0.342,-4.795 -3.676,-9.012 -6.052,-13 -3.464,-5.814 -6.653,-11.759 -9.281,-18 -8.538,-20.271 -13.917,-42.881 -13.493,-65 0.549,-28.696 8.293,-57.371 23.112,-82 32.158,-53.446094 94.877,-83.919294 156.73099,-75.999994 m 267,311.999994 c -13.1,-4.463 -26.042,-9.454 -39,-14.313 -5.594,-2.097 -12.529,-6.068 -18.63,-5.798 -4.836,0.215 -9.298,3.898 -13.372,6.164 -7.713,4.291 -15.744,7.97 -23.998,11.089 -21.299,8.046 -43.442,9.858 -66,9.858 9.643,-7.95 23.402,-11.49 34,-18.407 22.879,-14.932 41.665,-34.979 55.351,-58.593 44.225,-76.308 17.306,-177.538 -57.351,-223.755194 -11.886,-7.3582 -24.491,-13.5111 -38,-17.2448 6.06,-2.5153 12.547,-2.0067 19,-1.999 15.288,0.0181 30.363,2.3297 45,6.7693 70.508,21.3871 115.344,88.596694 112.927,161.229694 -0.666,20 -5.881,39.777 -13.959,58 -3.939,8.887 -13.548,19.281 -14.312,29 -0.498,6.323 3.281,13.169 5.309,19 4.48,12.88 9.764,25.751 13.035,39 m -231,-298.601794 c 17.955,-1.754 36.64,2e-4 54,4.819 16.406,4.554 32.182,12.0557 46,22.012802 67.824,48.877992 80.834,147.876992 28.426,212.769992 -11.668,14.448 -26.119,26.67 -42.426,35.603 -17.939,9.827 -37.602,16.141 -58,18.011 -23.323,2.139 -47.223,-1.187 -69,-9.796 -71.41799,-28.236 -108.59899,-110.298 -84.96499,-182.818 5.415,-16.617 13.813,-32.363 24.756,-46 11.648,-14.515 25.934,-26.961992 42.209,-36.050594 18.21699,-10.1731 38.21599,-16.5208 58.99999,-18.5512 m -34,93.601794 v 7 c 5.851,1.281 12.316,3.028 14.717,9.185 2.533,6.495 1.283,14.974 1.283,21.815 v 42 c 0,7.679 1.563,17.534 -1.283,24.812 -2.433,6.222 -8.776,7.526 -14.717,8.188 v 7 h 45 c 12.487,0 24.749,0.353 35.983,-6.032 15.143,-8.607 21.785,-29.479 10.287,-43.902 -6.831,-8.569 -16.852,-12.134 -27.27,-14.066 8.051,-3.397 16.512,-6.717 21.792,-14.095 9.875,-13.797 3.358,-32.315 -11.794,-38.591 -9.466,-3.92 -19.974,-3.314 -29.998,-3.314 h -44 m 35,53 v -45 c 8.609,0 19.201,-1.486 26.656,3.746 11.221,7.876 9.532,28.365 -0.841,36.137 -7.33,5.492 -17.124,5.108 -25.815,5.117 m 0,8 c 7.789,0 16.439,-0.983 23.995,1.231 18.591,5.448 22.004,34.238 6.772,45.453 -7.064,5.201 -23.474,7.838 -28.896,-1.119 -2.524,-4.171 -1.867,-9.9 -1.871,-14.565 v -31"
       id="path122"
       sodipodi:nodetypes="cccccccsccccccsccccssssccccccccccccccscccccccccscccccccccscccccccccsccsccccsccccsssccscccccsccccscccsccc" />
  </g>
</svg>
