
        <svg xmlns="http://www.w3.org/2000/svg" xmlns:xlink="http://www.w3.org/1999/xlink" version="1.1" width="3278.0119335245813" 
        height="828.475561903252" viewBox="0 0 3278.0119335245813 828.475561903252">
			
			<g transform="scale(13.900596676229059) translate(10, 10)">
				<defs id="SvgjsDefs7447"></defs><g id="SvgjsG7448" featureKey="nameLeftFeature-0" transform="matrix(2.195121746982319,0,0,2.195121746982319,1.0536590037779456,-6.341463057219059)" fill="#ffffff"><path d="M-0.48 20 l2.82 -16 l3.04 0 c2.06 0 2.52 1.28 2.1 3.58 l-0.06 0.42 c-0.24 1.38 -0.76 2.46 -1.26 3.24 l-0.02 0.08 c0.64 0.62 0.88 1.84 0.62 3.96 l-0.12 0.64 c-0.66 2.82 -1.62 4.08 -3.68 4.08 l-3.44 0 z M3.14 10.8 l1.04 0 c0.56 0 1.08 -0.66 1.46 -2.8 l0.06 -0.42 c0.28 -1.54 0 -1.98 -0.6 -1.98 l-1.04 0 z M1.88 18 l1.44 0 c0.6 0 1.1 -0.5 1.46 -2.08 l0.12 -0.64 c0.34 -2.38 0 -2.88 -0.6 -2.88 l-1.44 0 z M7.32 20 l2.82 -16 l2 0 l-2.82 16 l-2 0 z M12.520000000000001 20 l2.5 -14.2 l-2 0 l0.32 -1.8 l6 0 l-0.32 1.8 l-2 0 l-2.5 14.2 l-2 0 z M19.000000000000004 11.58 c0.98 -5.58 1.38 -7.78 4.18 -7.78 c2.06 0 2.4 1.26 2 4.28 l-1.86 0 c0.3 -2.18 0.18 -2.68 -0.42 -2.68 c-0.92 0 -1.1 0.98 -2.02 6.18 c-1.02 5.78 -1.16 6.62 -0.24 6.62 c0.66 0 0.94 -0.5 1.44 -3.08 l1.88 0 c-0.78 3.7 -1.52 5.08 -3.68 5.08 c-2.8 0 -2.4 -2.22 -1.28 -8.62 z M24.500000000000004 20 l2.82 -16 l2 0 l-1.2 6.8 l2 0 l1.2 -6.8 l2 0 l-2.82 16 l-2 0 l1.34 -7.6 l-2 0 l-1.34 7.6 l-2 0 z M32.50000000000001 20 l1.48 -8.4 c0.98 -5.58 1.38 -7.78 4.38 -7.78 s2.6 2.2 1.62 7.78 l-1.48 8.4 l-2 0 l0.82 -4.6 l-2 0 l-0.82 4.6 l-2 0 z M35.6 13.8 l2 0 l0.38 -2.2 c0.92 -5.2 1.08 -6.18 0.08 -6.18 s-1.16 0.98 -2.08 6.18 z M41.7 20 l2.5 -14.2 l-2 0 l0.32 -1.8 l6 0 l-0.32 1.8 l-2 0 l-2.5 14.2 l-2 0 z"></path></g><g id="SvgjsG7449" featureKey="inlineSymbolFeature-0" transform="matrix(0.4658855310148673,0,0,0.4658855310148673,102.35858258884895,-1.1645136690062443)" fill="#fdf402"><path xmlns="http://www.w3.org/2000/svg" d="M65.532,53.661c2.473-2.341,2.081-5.645-0.869-7.341L59.1,43.118c-2.95-1.697-4.723-5.797-3.941-9.109l6.699-28.398  c0.781-3.312-0.602-4.108-3.073-1.767L24.467,36.339c-2.472,2.341-2.08,5.644,0.87,7.342l5.562,3.2  c2.949,1.698,4.724,5.798,3.943,9.109l-6.701,28.398c-0.78,3.312,0.602,4.107,3.074,1.767L65.532,53.661z"></path></g><g id="SvgjsG7450" featureKey="nameRightFeature-0" transform="matrix(2.195121746982319,0,0,2.195121746982319,130.39512363107042,-6.341463057219059)" fill="#ffffff"><path d="M3.9200000000000004 20 l2.82 -16 l1.8 0 l0.9 9.8 l0 -0.2 l1.7 -9.6 l2 0 l-2.82 16 l-1.8 0 l-1.06 -8.8 l-0.02 0.2 l-1.52 8.6 l-2 0 z M12.32 20 l2.82 -16 l2 0 l-2.82 16 l-2 0 z M17.52 20 l2.5 -14.2 l-2 0 l0.32 -1.8 l6 0 l-0.32 1.8 l-2 0 l-2.5 14.2 l-2 0 z M22.720000000000002 20 l2.82 -16 l3.24 0 c2.06 0 2.54 1.26 2.12 3.68 c-0.4 2.18 -0.88 3.42 -1.6 4.02 l-0.02 0.12 c0.48 0.18 0.48 1.12 0.28 3.46 l-0.44 4.72 l-2 0 l0.58 -4.72 c0.28 -2.38 0 -2.88 -0.6 -2.88 l-1.04 0 l-1.34 7.6 l-2 0 z M26.340000000000003 10.8 l1.24 0 c0.7 0 1.02 -0.7 1.46 -3.12 c0.26 -1.58 0.06 -2.08 -0.54 -2.08 l-1.24 0 z M32 11.58 c0.98 -5.58 1.5 -7.78 4.5 -7.78 s2.72 2.2 1.74 7.78 c-1.12 6.4 -1.64 8.62 -4.64 8.62 s-2.72 -2.22 -1.6 -8.62 z M33.96 18.2 c1.12 0 1.26 -0.84 2.28 -6.62 c0.92 -5.2 1.1 -6.18 -0.02 -6.18 s-1.3 0.98 -2.22 6.18 c-1.02 5.78 -1.16 6.62 -0.04 6.62 z"></path></g>
			</g>
		</svg>
	