<svg width="15" height="15" viewBox="0 0 15 15" fill="none" xmlns="http://www.w3.org/2000/svg">
<path d="M0 2.026H15V7.09099H0V2.026Z" fill="white"/>
<path d="M0.959302 1.05704H14.0843V8.19207H0.959302V1.05704Z" fill="white"/>
<path d="M2.04942 0H5.97384V1.80578H2.04942V0Z" fill="white"/>
<path d="M8.98256 0H12.9942V1.67365H8.98256V0Z" fill="white"/>
<path d="M2.04942 2.11408H12.9942V9.11698H2.04942V2.11408Z" fill="white"/>
<path d="M1.09012 3.08304H13.9971V8.10398H1.09012V3.08304Z" fill="white"/>
<path d="M3.05233 8.05994H11.9477V10.13H3.05233V8.05994Z" fill="white"/>
<path d="M4.01163 9.07294H10.9884V11.143H4.01163V9.07294Z" fill="white"/>
<path d="M5.05814 10.13H9.98547V12.2H5.05814V10.13Z" fill="white"/>
<path d="M5.97384 11.0989H8.98256V13.169H5.97384V11.0989Z" fill="white"/>
<path d="M6.88953 12.0679H8.02326V14.1379H6.88953V12.0679Z" fill="white"/>
<path d="M0.0862427 2.11203H14.9138V7.06893H0.0862427V2.11203Z" fill="#1A1A1A"/>
<path d="M1.03452 1.16376H6.98279H7.47848H7.97417H8.96555H14.0087V8.14651H1.03452V1.16376Z" fill="#1A1A1A"/>
<path d="M2.1121 0.129272H5.99141V1.89651H2.1121V0.129272Z" fill="#1A1A1A"/>
<path d="M8.96555 0.129272H12.9311V1.7672H8.96555V1.16376V0.129272Z" fill="#1A1A1A"/>
<path d="M2.1121 2.19824H12.9311V9.05169H2.1121V2.19824Z" fill="#1A1A1A"/>
<path d="M1.16383 3.14651H13.9224V8.06031H1.16383V3.14651Z" fill="#1A1A1A"/>
<path d="M3.10348 8.0172H11.8966V10.0431H3.10348V8.0172Z" fill="#1A1A1A"/>
<path d="M4.05176 9.00858H10.9483V11.0344H4.05176V9.00858Z" fill="#1A1A1A"/>
<path d="M5.08624 10.0431H9.95693V12.0689H5.08624V10.0431Z" fill="#1A1A1A"/>
<path d="M5.99141 10.9913H8.96555V13.0172H5.99141V10.9913Z" fill="#1A1A1A"/>
<path d="M6.89659 11.9396H8.01728V13.9655H6.89659V11.9396Z" fill="#1A1A1A"/>
<path d="M1.16388 2.15512H2.11216H7.02595H7.97422H12.9311H13.9225V7.06892H1.16388V2.15512Z" fill="#F42B2C"/>
<path d="M3.10353 7.02581H11.8966V9.05168H3.10353V7.02581Z" fill="#F42B2C"/>
<path d="M4.05181 8.01719H10.9484V10.0431H4.05181V8.01719Z" fill="#F42B2C"/>
<path d="M5.08629 9.05168H9.95698V11.0775H5.08629V9.05168Z" fill="#F42B2C"/>
<path d="M5.99147 9.99995H8.9656V12.0258H5.99147V9.99995Z" fill="#F42B2C"/>
<path d="M6.89664 10.9482H8.01733V12.9741H6.89664V10.9482Z" fill="#F42B2C"/>
<rect x="2.06903" y="1.16379" width="3.92241" height="0.991379" fill="#F42B2C"/>
<rect x="8.96558" y="1.16379" width="4.05172" height="0.991379" fill="#F42B2C"/>
<rect x="7.97424" y="1.20685" width="0.991379" height="0.948276" fill="#1A1A1A"/>
<rect x="6.98279" y="2.19824" width="0.991379" height="0.948276" fill="#1A1A1A"/>
<rect x="6.98279" y="3.18961" width="0.991379" height="0.948276" fill="#1A1A1A"/>
<rect x="6.03448" y="1.20685" width="0.991379" height="0.948276" fill="#1A1A1A"/>
<path d="M2.11206 3.14648H3.10344V5.12924H2.11206V3.14648Z" fill="white"/>
<path d="M3.10344 2.112H4.09482V3.14648H3.10344V2.112Z" fill="white"/>
</svg>
